<svg width="28" height="28" viewBox="0 0 28 28" fill="none" xmlns="http://www.w3.org/2000/svg">
<rect x="4" y="4" width="20" height="20" fill="#F2F3F4" stroke="#27292A" stroke-linecap="round" stroke-linejoin="round"/>
<path d="M6.5 9.5H12.5V15.5H6.5V9.5Z" fill="url(#paint0_linear_100_3147)"/>
<path d="M12.5 9.5H6.5L9.5 6.5H15.5V12.5L12.5 15.5V9.5Z" fill="url(#paint1_linear_100_3147)"/>
<path d="M12.5 15.5H18.5V21.5H12.5V15.5Z" fill="url(#paint2_linear_100_3147)"/>
<path d="M18.5 15.5H12.5L15.5 12.5H21.5V18.5L18.5 21.5V15.5Z" fill="url(#paint3_linear_100_3147)"/>
<path d="M6.5 9.5H12.5M6.5 9.5V15.5H12.5M6.5 9.5L9.5 6.5H15.5M12.5 9.5V15.5M12.5 9.5L15.5 6.5M12.5 15.5L15.5 12.5M12.5 15.5H18.5M12.5 15.5V21.5H18.5M15.5 6.5V12.5M15.5 12.5H21.5M18.5 15.5V21.5M18.5 15.5L21.5 12.5M18.5 21.5L21.5 18.5V12.5" stroke="#27292A" stroke-width="0.5" stroke-linecap="round" stroke-linejoin="round"/>
<defs>
<linearGradient id="paint0_linear_100_3147" x1="5.5625" y1="14" x2="22.4375" y2="14" gradientUnits="userSpaceOnUse">
<stop stop-color="#DB771F"/>
<stop offset="1" stop-color="#EFBB85"/>
</linearGradient>
<linearGradient id="paint1_linear_100_3147" x1="5.5625" y1="14" x2="22.4375" y2="14" gradientUnits="userSpaceOnUse">
<stop stop-color="#DB771F"/>
<stop offset="1" stop-color="#EFBB85"/>
</linearGradient>
<linearGradient id="paint2_linear_100_3147" x1="5.5625" y1="14" x2="22.4375" y2="14" gradientUnits="userSpaceOnUse">
<stop stop-color="#DB771F"/>
<stop offset="1" stop-color="#EFBB85"/>
</linearGradient>
<linearGradient id="paint3_linear_100_3147" x1="5.5625" y1="14" x2="22.4375" y2="14" gradientUnits="userSpaceOnUse">
<stop stop-color="#DB771F"/>
<stop offset="1" stop-color="#EFBB85"/>
</linearGradient>
</defs>
</svg>
