<svg width="28" height="28" viewBox="0 0 28 28" fill="none" xmlns="http://www.w3.org/2000/svg">
<path d="M4 3H18L23 8V24H4V3Z" fill="#F2F3F4" stroke="#27292A" stroke-linejoin="round"/>
<path d="M17 23C17 17.5 19.5 15 26 15M26 15L22 12M26 15L22 18" stroke="white" stroke-width="2.5" stroke-linecap="round" stroke-linejoin="round"/>
<path d="M8 11H15V17H8V11Z" fill="url(#paint0_linear_485_2250)"/>
<path d="M15 11H8L11 8H18V14L15 17V11Z" fill="url(#paint1_linear_485_2250)"/>
<path d="M8 11L11 8H18M8 11H15M8 11V17H15M15 11V17M15 11L18 8M15 17L18 14V8" stroke="#27292A" stroke-width="0.5" stroke-linecap="round" stroke-linejoin="round"/>
<path d="M17.1294 17.0115L17.1294 17.0115C17.2799 17.1475 17.2724 17.3423 17.1987 17.4701C17.1265 17.5954 16.9758 17.6905 16.7969 17.6622C16.7969 17.6622 16.7969 17.6622 16.7969 17.6622L13.3563 17.1186L11.4549 20.0693C11.3575 20.2204 11.1874 20.2717 11.0441 20.2417C10.8973 20.2108 10.7494 20.084 10.75 19.8818C10.75 19.8818 10.75 19.8818 10.75 19.8818L10.7603 16.0707L10.7711 12.1343C10.7711 12.1342 10.7711 12.1342 10.7711 12.1342C10.7716 11.9618 10.883 11.8385 11.0013 11.7852C11.1197 11.7319 11.2873 11.7298 11.4167 11.8468L17.1294 17.0115ZM17.1294 17.0115L14.3192 14.4708L14.3192 14.4708L11.4167 11.8468L17.1294 17.0115Z" fill="#27292A" stroke="#F2F3F4" stroke-width="0.5"/>
<path d="M17 23C17 17.5 19.5 15 26 15M26 15L22 12M26 15L22 18" stroke="#D44A1A" stroke-width="1.5" stroke-linecap="round" stroke-linejoin="round"/>
<defs>
<linearGradient id="paint0_linear_485_2250" x1="7.375" y1="12.5" x2="18.625" y2="12.5" gradientUnits="userSpaceOnUse">
<stop stop-color="#DB771F"/>
<stop offset="1" stop-color="#EFBB85"/>
</linearGradient>
<linearGradient id="paint1_linear_485_2250" x1="7.375" y1="12.5" x2="18.625" y2="12.5" gradientUnits="userSpaceOnUse">
<stop stop-color="#DB771F"/>
<stop offset="1" stop-color="#EFBB85"/>
</linearGradient>
</defs>
</svg>
