<svg width="28" height="28" viewBox="0 0 28 28" fill="none" xmlns="http://www.w3.org/2000/svg">
<path d="M21.5 7.5L16.5 12.5M23.5 10.5L18 14.5M24.5 13.5L19 16M25 17L20 18.5M24.2 20L20.5 20.5M23 22.5H20.5M18.5 5.5L14.5 10.5M15 4L12.5 9.5M12 3.5L10.5 9M9 4L8.5 8.5M6 6V8.5" stroke="#D44A1A" stroke-width="0.75" stroke-linecap="round" stroke-linejoin="round"/>
<path d="M4.5799 7C6.06837 5.32052 8.65007 3.49999 12 3.5C16.5 3.50002 19 5 21.5 7.5C24 10 25 13 25 17C25 19.6601 23.4719 22.2783 22 24.0096" stroke="#D44A1A" stroke-width="0.75" stroke-linecap="round" stroke-linejoin="round"/>
<path d="M3 9H6.77778C15.0802 9 20 13.9198 20 22.2222V26" stroke="#27292A" stroke-width="1.25" stroke-linecap="round" stroke-linejoin="round"/>
</svg>
