<svg width="28" height="28" viewBox="0 0 28 28" fill="none" xmlns="http://www.w3.org/2000/svg">
<path d="M5 20.6V7.4C5 4.96995 9.02944 3 14 3C18.9706 3 23 4.96995 23 7.4V20.6C23 23.0301 18.9706 25 14 25C9.02944 25 5 23.0301 5 20.6Z" fill="url(#paint0_linear_91_2453)"/>
<ellipse cx="14" cy="7" rx="9" ry="4" fill="#F2F3F4"/>
<path d="M5 20.6V7.4C5 4.96995 9.02944 3 14 3C18.9706 3 23 4.96995 23 7.4V20.6C23 23.0301 18.9706 25 14 25C9.02944 25 5 23.0301 5 20.6Z" stroke="#27292A" stroke-linecap="round" stroke-linejoin="round"/>
<path d="M23 7C23 9.20914 18.9706 11 14 11C9.02944 11 5 9.20914 5 7" stroke="#27292A" stroke-width="0.5"/>
<defs>
<linearGradient id="paint0_linear_91_2453" x1="5" y1="17.1422" x2="23" y2="17.1422" gradientUnits="userSpaceOnUse">
<stop stop-color="#C0C1C2"/>
<stop offset="0.496298" stop-color="#E2E2E2"/>
<stop offset="1" stop-color="#B7B8B9"/>
</linearGradient>
</defs>
</svg>
