<svg width="28" height="28" viewBox="0 0 28 28" fill="none" xmlns="http://www.w3.org/2000/svg">
<path d="M4 8L14 3L24 8L14 13L4 8Z" fill="#F2F3F4"/>
<path d="M14 13L4 8V20L14 25V13Z" fill="#D5D6D7"/>
<path d="M24 8L14 13V25L24 20V8Z" fill="#B7B8B9"/>
<path d="M4 8L14 13M14 13L24 8M14 13V25" stroke="#27292A" stroke-width="0.5" stroke-linejoin="round"/>
<path d="M4 19.382V8.61803C4 8.23926 4.214 7.893 4.55279 7.72361L13.5528 3.22361C13.8343 3.08284 14.1657 3.08284 14.4472 3.22361L23.4472 7.72361C23.786 7.893 24 8.23926 24 8.61803V19.382C24 19.7607 23.786 20.107 23.4472 20.2764L14.4472 24.7764C14.1657 24.9172 13.8343 24.9172 13.5528 24.7764L4.55279 20.2764C4.214 20.107 4 19.7607 4 19.382Z" stroke="#27292A"/>
<path d="M17 15L21.5 18M17 20L21.5 13" stroke="#D44A1A" stroke-linecap="round"/>
</svg>
