<svg width="28" height="28" viewBox="0 0 28 28" fill="none" xmlns="http://www.w3.org/2000/svg">
<path d="M4 8L14 3L24 8L14 13L4 8Z" fill="#F2F3F4"/>
<path d="M14 13L4 8V20L14 25V13Z" fill="#D5D6D7"/>
<path d="M24 8L14 13V25L24 20V8Z" fill="#B7B8B9"/>
<path d="M4 8L14 13M14 13L24 8M14 13V25" stroke="#27292A" stroke-width="0.5" stroke-linejoin="round"/>
<path d="M4 20V8L14 3L24 8V20L14 25L4 20Z" stroke="#27292A"/>
<circle cx="20" cy="20" r="7" fill="white"/>
<circle cx="20" cy="20" r="6" stroke="#27292A"/>
<path d="M17.0006 21.2433C16.077 20.3196 15.8815 18.9436 16.4142 17.8285L18.0613 19.4755C18.4518 19.866 19.0849 19.8661 19.4755 19.4755C19.866 19.085 19.866 18.4518 19.4755 18.0613L17.8284 16.4142C18.9436 15.8815 20.3196 16.077 21.2432 17.0006C22.1669 17.9243 22.3624 19.3003 21.8296 20.4155L23.3646 21.9504C23.7551 22.341 23.7552 22.9741 23.3646 23.3646C22.9741 23.7552 22.3409 23.7552 21.9504 23.3646L20.4154 21.8297C19.3003 22.3624 17.9242 22.1669 17.0006 21.2433Z" fill="#D44A1A"/>
</svg>
