<svg width="28" height="28" viewBox="0 0 28 28" fill="none" xmlns="http://www.w3.org/2000/svg">
<path d="M25 9C19.5 7.5 18 16 12.5 18.5L3 12.5C8.5 10.5 10 3.5 15 3.5L25 9Z" fill="url(#paint0_linear_164_3950)"/>
<path d="M25 15C19.5 13.5 18 22 12.5 24.5L3 18.5V12.5L12.5 18.5C18 16 19.5 7.50004 25 9.00005V15Z" fill="url(#paint1_linear_164_3950)"/>
<path d="M15 3.5L25 9V15C19.5 13.5 18 22 12.5 24.5L3 18.5V12.5C8.5 10.5 10 3.5 15 3.5Z" stroke="black" stroke-linejoin="round"/>
<path d="M12.5 24.5V18.5M12.5 18.5C18 16 19.5 7.50004 25 9.00005M12.5 18.5L3 12.5" stroke="black" stroke-width="0.5" stroke-linecap="round" stroke-linejoin="round"/>
<defs>
<linearGradient id="paint0_linear_164_3950" x1="1.625" y1="11" x2="26.375" y2="11" gradientUnits="userSpaceOnUse">
<stop stop-color="#DB771F"/>
<stop offset="1" stop-color="#EFBB85"/>
</linearGradient>
<linearGradient id="paint1_linear_164_3950" x1="1.9" y1="8.82385" x2="17.145" y2="30.1195" gradientUnits="userSpaceOnUse">
<stop stop-color="#EAEAEB"/>
<stop offset="1" stop-color="#C6C6C7"/>
</linearGradient>
</defs>
</svg>
