<svg width="28" height="28" viewBox="0 0 28 28" fill="none" xmlns="http://www.w3.org/2000/svg">
<path d="M10 7L13 4H24V15L21 18H18V21L15 24H4V13L7 10H10V7Z" fill="url(#paint0_linear_100_3117)"/>
<path d="M4 13H10V7M4 13L7 10H10M4 13V24H15M15 24V18H21M15 24L18 21V18M10 7L13 4H24M10 7H21M21 18L24 15V4M21 18V7M24 4L21 7" stroke="#27292A" stroke-linecap="round" stroke-linejoin="round"/>
<defs>
<linearGradient id="paint0_linear_100_3117" x1="2.75" y1="14" x2="25.25" y2="14" gradientUnits="userSpaceOnUse">
<stop stop-color="#DB771F"/>
<stop offset="1" stop-color="#EFBB85"/>
</linearGradient>
</defs>
</svg>
